<svg xmlns="http://www.w3.org/2000/svg" width="16" height="20" viewBox="0 0 16 20" fill="none">
  <path d="M9.23047 13.75C9.23047 14.0214 9.31881 14.2855 9.48216 14.5022C9.6455 14.719 9.87496 14.8767 10.1359 14.9516C10.3968 15.0264 10.6749 15.0143 10.9283 14.917C11.1818 14.8198 11.3966 14.6427 11.5405 14.4125L14.9005 11.0537C15.0165 10.9376 15.1086 10.7998 15.1713 10.648C15.2341 10.4963 15.2664 10.3337 15.2663 10.1696C15.2663 10.0054 15.2339 9.8428 15.171 9.69114C15.1081 9.53947 15.016 9.40168 14.8998 9.28562C14.7837 9.16957 14.6458 9.07752 14.4941 9.01475C14.3424 8.95197 14.1798 8.91969 14.0157 8.91975C13.8515 8.9198 13.6889 8.9522 13.5372 9.01509C13.3856 9.07797 13.2478 9.17011 13.1317 9.28625L11.7317 10.6862V1.25C11.7317 0.918479 11.6 0.600537 11.3656 0.366117C11.1312 0.131696 10.8132 0 10.4817 0C10.1502 0 9.83226 0.131696 9.59783 0.366117C9.36341 0.600537 9.23172 0.918479 9.23172 1.25V13.6875V13.75H9.23047Z" fill="white"/>
  <path d="M6.77009 6.25C6.77009 5.97858 6.68174 5.71453 6.5184 5.49776C6.35506 5.28098 6.1256 5.12327 5.86469 5.04844C5.60378 4.97361 5.32561 4.98574 5.07221 5.08299C4.8188 5.18025 4.60394 5.35734 4.46009 5.58751L1.10134 8.94625C0.981949 9.06156 0.886721 9.19949 0.82121 9.352C0.755698 9.5045 0.721216 9.66853 0.719774 9.8345C0.718331 10.0005 0.749958 10.1651 0.812809 10.3187C0.875661 10.4723 0.968477 10.6119 1.08584 10.7292C1.20321 10.8466 1.34277 10.9394 1.49639 11.0023C1.65001 11.0651 1.81461 11.0968 1.98059 11.0953C2.14656 11.0939 2.31059 11.0594 2.46309 10.9939C2.6156 10.9284 2.75353 10.8331 2.86884 10.7138L4.27009 9.31376V18.75C4.27009 19.0815 4.40178 19.3995 4.6362 19.6339C4.87062 19.8683 5.18857 20 5.52009 20C5.85161 20 6.16955 19.8683 6.40397 19.6339C6.63839 19.3995 6.77009 19.0815 6.77009 18.75V6.31251V6.25Z" fill="white"/>
</svg>